<svg aria-hidden="true" style="position:absolute;width:0;height:0" xmlns="http://www.w3.org/2000/svg" overflow="hidden">
  <defs>
  <symbol id="icon-vector" viewBox="0 0 21 32">
      <path fill="var(--color1, #fff)" d="M10.667 0C4.785 0 0 4.99 0 11.123 0 18.832 10.677 32 10.677 32s10.656-13.547 10.656-20.877C21.333 4.99 16.548 0 10.666 0zm3.218 14.38c-.887.925-2.053 1.388-3.218 1.388s-2.331-.463-3.218-1.388c-1.775-1.85-1.775-4.861 0-6.712.859-.896 2.002-1.39 3.218-1.39s2.359.494 3.218 1.39c1.775 1.851 1.775 4.861 0 6.712z"/>
    </symbol>
    <symbol id="icon-b-buster" viewBox="0 0 24 32">
      <path  d="M13.6.038c2.002 0 3.594.303 4.776.91a7.944 7.944 0 0 1 4.458 7.278 7.606 7.606 0 0 1-1.183 4.117 8.401 8.401 0 0 1-3.23 2.98 8.99 8.99 0 0 1 4.14 3.002 7.603 7.603 0 0 1 1.683 4.822 8.207 8.207 0 0 1-1.205 4.344 8.775 8.775 0 0 1-3.207 3.116 8.481 8.481 0 0 1-2.229.819c-.819.182-1.911.273-3.275.273H.317V.038H13.6z"/>
    </symbol>
    <symbol id="icon-e-logo" viewBox="0 0 24 32">
      <path  d="M0 .039h23.064v8.006H8.28v4.003h12.282v7.597H8.28v4.049h14.784V31.7H0V.039z"/>
    </symbol>
    <symbol id="icon-ellipse2" viewBox="0 0 32 32">
      <path d="M32 16c0 8.837-7.163 16-16 16S0 24.837 0 16 7.163 0 16 0s16 7.163 16 16z"/>
    </symbol>
    <symbol id="icon-ellipse4" viewBox="0 0 32 32">
      <path d="M32 16c0 8.837-7.163 16-16 16S0 24.837 0 16 7.163 0 16 0s16 7.163 16 16z"/>
    </symbol>
    <symbol id="icon-ellipse5" viewBox="0 0 32 32">
      <path d="M32 16c0 8.837-7.163 16-16 16S0 24.837 0 16 7.163 0 16 0s16 7.163 16 16z"/>
    </symbol>
    <symbol id="icon-ellipse6" viewBox="0 0 32 32">
      <path d="M32 16c0 8.837-7.163 16-16 16S0 24.837 0 16 7.163 0 16 0s16 7.163 16 16z"/>
    </symbol>
    <symbol id="icon-ellipse7" viewBox="0 0 32 32">
      <path d="M32 16c0 8.837-7.163 16-16 16S0 24.837 0 16 7.163 0 16 0s16 7.163 16 16z"/>
    </symbol>
    <symbol id="icon-ellipse8" viewBox="0 0 32 32">
      <path d="M32 16c0 8.837-7.163 16-16 16S0 24.837 0 16 7.163 0 16 0s16 7.163 16 16z"/>
    </symbol>
    <symbol id="icon-ellipse9" viewBox="0 0 32 32">
      <path d="M32 16c0 8.837-7.163 16-16 16S0 24.837 0 16 7.163 0 16 0s16 7.163 16 16z"/>
    </symbol>
    <symbol id="icon-ellipse10" viewBox="0 0 64 32">
      <path d="M32 16c0 8.837-7.163 16-16 16S0 24.837 0 16 7.163 0 16 0s16 7.163 16 16z"/>
    </symbol>
    <symbol id="icon-ellipse11" viewBox="0 0 64 32">
      <path d="M64 32A32.007 32.007 0 0 0 44.246 2.435 32.003 32.003 0 0 0 2.435 19.754 32.003 32.003 0 0 0-.001 32h64z"/>
    </symbol>
    <symbol id="icon-line-2" viewBox="0 0 0 32">
      <path stroke-width=".036" d="M.018 0v32"/>
    </symbol>
    <symbol id="icon-n-event" viewBox="0 0 26 32">
      <path  d="M.737 31.654V0h1.774l22.108 21.517V0h1.683v31.661L.737 31.653z"/>
    </symbol>
    <symbol id="icon-polygon-1-input" viewBox="0 0 52 32">
      <path fill="var(--color2, #939393)" d="M26 32L.019 2h51.962L26 32z"/>
    </symbol>
    <symbol id="icon-r-buster" viewBox="0 0 24 32">
      <path  d="M24.471 31.699H.134V.038h12.328c2.638 0 4.792.47 6.46 1.41a9.826 9.826 0 0 1 3.821 3.73 10.285 10.285 0 0 1 1.365 5.231 10.034 10.034 0 0 1-2.184 6.346 10.278 10.278 0 0 1-5.504 3.707l8.052 11.236zM1.816 2.813v16.331h11.691L1.816 2.813zm0 27.203h19.47l-6.642-9.235-1.41.046H1.816v9.189zM2.999 1.721l12.373 17.286a8.698 8.698 0 0 0 5.049-3.048 8.441 8.441 0 0 0 2.002-5.55 8.677 8.677 0 0 0-1.228-4.549 8.076 8.076 0 0 0-3.457-3.139c-1.334-.667-3.078-1.001-5.231-1.001H3z"/>
    </symbol>
    <symbol id="icon-rectangle-7" viewBox="0 0 34 32">
      <path fill="var(--color1, #fff)" d="M24.471 31.699H.134V.038h12.328c2.638 0 4.792.47 6.46 1.41a9.826 9.826 0 0 1 3.821 3.73 10.285 10.285 0 0 1 1.365 5.231 10.034 10.034 0 0 1-2.184 6.346 10.278 10.278 0 0 1-5.504 3.707l8.052 11.236zM1.816 2.813v16.331h11.691L1.816 2.813zm0 27.203h19.47l-6.642-9.235-1.41.046H1.816v9.189zM2.999 1.721l12.373 17.286a8.698 8.698 0 0 0 5.049-3.048 8.441 8.441 0 0 0 2.002-5.55 8.677 8.677 0 0 0-1.228-4.549 8.076 8.076 0 0 0-3.457-3.139c-1.334-.667-3.078-1.001-5.231-1.001H3z"/>
    </symbol>
    <symbol id="icon-s-buster" viewBox="0 0 25 32">
      <path  d="M4.312 27.991c-2.13-1.859-3.182-4.647-3.154-8.364h6.634c-.027 1.547.434 2.727 1.384 3.541s2.279 1.221 3.989 1.221c1.411 0 2.524-.231 3.338-.692s1.221-1.167 1.221-2.116c0-.787-.414-1.357-1.241-1.709a11.581 11.581 0 0 0-2.462-.753c-.814-.149-1.316-.24-1.506-.271a32.629 32.629 0 0 1-5.413-1.492 9.436 9.436 0 0 1-3.826-2.646c-1.031-1.194-1.547-2.768-1.547-4.721s.516-3.616 1.547-4.986c1.031-1.37 2.408-2.395 4.131-3.073A15.275 15.275 0 0 1 13.044.912c2.469 0 4.606.461 6.41 1.384s3.222 2.32 4.253 4.192c.478.792.796 1.67.936 2.585.107.803.161 1.612.163 2.422h-6.634c0-1.465-.393-2.544-1.18-3.236s-2.008-1.038-3.663-1.038c-1.33 0-2.361.231-3.093.692S9.137 8.998 9.137 9.785c0 .868.488 1.506 1.465 1.913 1.2.474 2.439.842 3.704 1.099 2.442.488 4.348.956 5.719 1.404a8.003 8.003 0 0 1 3.561 2.381c1.004 1.14 1.506 2.741 1.506 4.803 0 1.954-.543 3.636-1.628 5.047s-2.517 2.49-4.294 3.236a14.718 14.718 0 0 1-5.759 1.119c-3.934-.005-6.967-.936-9.097-2.795z"/>
    </symbol>
    <symbol id="icon-search" viewBox="0 0 32 32">
      <path fill="var(--color2, #939393)" d="M4.024 4.024C6.619 1.429 10.069 0 13.739 0s7.12 1.429 9.715 4.024a13.649 13.649 0 0 1 4.024 9.715 13.64 13.64 0 0 1-3.383 9.029l7.63 7.63a.94.94 0 0 1-1.327 1.327l-7.63-7.63a13.635 13.635 0 0 1-9.029 3.383c-3.67 0-7.12-1.429-9.715-4.024S0 17.409 0 13.739s1.429-7.12 4.024-9.715zm1.327 18.103c4.625 4.625 12.15 4.625 16.775 0s4.625-12.15 0-16.775c-2.313-2.313-5.35-3.469-8.388-3.469S7.663 3.04 5.35 5.352c-4.625 4.625-4.625 12.15 0 16.775z"/>
    </symbol>
    <symbol id="icon-t-buster" viewBox="0 0 28 32">
      <path  d="M12.811 31.699V8.044H.847V.038h25.565v8.006H14.448v23.655H12.81z"/>
    </symbol>
    <symbol id="icon-u1-buster" viewBox="0 0 17 32">
      <path  d="M2.492 24.136c1.765 4.901 5.393 7.351 10.883 7.351h1.733V1.257h-1.733c-4.246 0-7.38 1.674-9.401 5.021-1.698 2.856-2.548 6.491-2.549 10.905 0 2.622.356 4.94 1.067 6.952z"/>
    </symbol>
    <symbol id="icon-u2-buster" viewBox="0 0 15 32">
      <path  d="M13.415 8.715C11.652 3.814 8.024 1.363 2.531 1.362H.798v30.23h1.733c4.246 0 7.38-1.674 9.401-5.021 1.703-2.857 2.555-6.492 2.555-10.906-.004-2.625-.361-4.942-1.072-6.951z"/>
    </symbol>
    <symbol id="icon-v-event" viewBox="0 0 30 32">
      <path  d="M.736 0H28.92L14.828 30.547.736 0zm14.092 26.766L26.471 1.59H3.228l11.6 25.176z"/>
    </symbol>
    <symbol id="icon-x1-modal" viewBox="0 0 32 32">
      <path fill="var(--color3, #4c00fe)" d="M30.355 32c-.421 0-.843-.16-1.163-.483L.483 2.811A1.647 1.647 0 0 1 2.812.482l28.707 28.707A1.646 1.646 0 0 1 30.356 32z"/>
    </symbol>
    <symbol id="icon-x2-modal" viewBox="0 0 32 32">
      <path fill="var(--color3, #4c00fe)" d="M1.646 32a1.646 1.646 0 0 1-1.163-2.811L29.19.482a1.646 1.646 0 1 1 2.328 2.329L2.811 31.517A1.65 1.65 0 0 1 1.646 32z"/>
    </symbol>
  </defs>
</svg>
